<svg xmlns="http://www.w3.org/2000/svg" width="32" height="32" viewBox="0 0 24 24" fill="none" stroke="#2563eb" stroke-width="2" stroke-linecap="round" stroke-linejoin="round">
  <path d="M9 9h6"></path>
  <path d="M9 13h6"></path>
  <path d="M9 17h6"></path>
  <path d="M5 7.2C5 6.54 5 6.2 5.11 5.93C5.2 5.71 5.34 5.5 5.53 5.34C5.74 5.18 6.01 5.09 6.54 5.03L10.84 4.44C11.04 4.41 11.14 4.4 11.24 4.4C11.34 4.4 11.44 4.41 11.64 4.44L15.93 5.03C16.47 5.09 16.74 5.18 16.95 5.34C17.13 5.5 17.28 5.71 17.37 5.93C17.48 6.2 17.48 6.54 17.48 7.2V16.8C17.48 17.46 17.48 17.8 17.37 18.07C17.28 18.29 17.13 18.5 16.95 18.66C16.74 18.82 16.47 18.91 15.93 18.97L11.64 19.56C11.44 19.59 11.34 19.6 11.24 19.6C11.14 19.6 11.04 19.59 10.84 19.56L6.54 18.97C6.01 18.91 5.74 18.82 5.53 18.66C5.34 18.5 5.2 18.29 5.11 18.07C5 17.8 5 17.46 5 16.8V7.2Z"></path>
</svg> 